<svg xmlns="http://www.w3.org/2000/svg" xmlns:xlink="http://www.w3.org/1999/xlink" width="1024" height="1024" version="1.1" viewBox="0 0 1024 1024"><defs><path id="path-1" d="M184,2.30940108 L331.884573,87.6905989 C334.359781,89.1196613 335.884573,91.7606774 335.884573,94.6188022 L335.884573,265.381198 C335.884573,268.239323 334.359781,270.880339 331.884573,272.309401 L184,357.690599 C181.524791,359.119661 178.475209,359.119661 176,357.690599 L28.1154273,272.309401 C25.6402187,270.880339 24.1154273,268.239323 24.1154273,265.381198 L24.1154273,94.6188022 C24.1154273,91.7606774 25.6402187,89.1196613 28.1154273,87.6905989 L176,2.30940108 C178.475209,0.880338717 181.524791,0.880338717 184,2.30940108 Z"/><linearGradient id="linearGradient-3" x1="50%" x2="50%" y1="0%" y2="100%"><stop offset="0%" stop-color="#E6E6E6" stop-opacity="0"/><stop offset="100%" stop-color="#E6E6E6"/></linearGradient><path id="path-4" d="M184,2.30940108 L331.884573,87.6905989 C334.359781,89.1196613 335.884573,91.7606774 335.884573,94.6188022 L335.884573,265.381198 C335.884573,268.239323 334.359781,270.880339 331.884573,272.309401 L184,357.690599 C181.524791,359.119661 178.475209,359.119661 176,357.690599 L28.1154273,272.309401 C25.6402187,270.880339 24.1154273,268.239323 24.1154273,265.381198 L24.1154273,94.6188022 C24.1154273,91.7606774 25.6402187,89.1196613 28.1154273,87.6905989 L176,2.30940108 C178.475209,0.880338717 181.524791,0.880338717 184,2.30940108 Z"/><linearGradient id="linearGradient-6" x1="50%" x2="50%" y1="0%" y2="100%"><stop offset="0%" stop-color="#E6E6E6" stop-opacity="0"/><stop offset="100%" stop-color="#E6E6E6"/></linearGradient><path id="path-7" d="M184,2.30940108 L331.884573,87.6905989 C334.359781,89.1196613 335.884573,91.7606774 335.884573,94.6188022 L335.884573,265.381198 C335.884573,268.239323 334.359781,270.880339 331.884573,272.309401 L184,357.690599 C181.524791,359.119661 178.475209,359.119661 176,357.690599 L28.1154273,272.309401 C25.6402187,270.880339 24.1154273,268.239323 24.1154273,265.381198 L24.1154273,94.6188022 C24.1154273,91.7606774 25.6402187,89.1196613 28.1154273,87.6905989 L176,2.30940108 C178.475209,0.880338717 181.524791,0.880338717 184,2.30940108 Z"/><path id="path-9" d="M184,2.30940108 L331.884573,87.6905989 C334.359781,89.1196613 335.884573,91.7606774 335.884573,94.6188022 L335.884573,265.381198 C335.884573,268.239323 334.359781,270.880339 331.884573,272.309401 L184,357.690599 C181.524791,359.119661 178.475209,359.119661 176,357.690599 L28.1154273,272.309401 C25.6402187,270.880339 24.1154273,268.239323 24.1154273,265.381198 L24.1154273,94.6188022 C24.1154273,91.7606774 25.6402187,89.1196613 28.1154273,87.6905989 L176,2.30940108 C178.475209,0.880338717 181.524791,0.880338717 184,2.30940108 Z"/><path id="path-11" d="M184,2.30940108 L331.884573,87.6905989 C334.359781,89.1196613 335.884573,91.7606774 335.884573,94.6188022 L335.884573,265.381198 C335.884573,268.239323 334.359781,270.880339 331.884573,272.309401 L184,357.690599 C181.524791,359.119661 178.475209,359.119661 176,357.690599 L28.1154273,272.309401 C25.6402187,270.880339 24.1154273,268.239323 24.1154273,265.381198 L24.1154273,94.6188022 C24.1154273,91.7606774 25.6402187,89.1196613 28.1154273,87.6905989 L176,2.30940108 C178.475209,0.880338717 181.524791,0.880338717 184,2.30940108 Z"/><path id="path-13" d="M184,2.30940108 L331.884573,87.6905989 C334.359781,89.1196613 335.884573,91.7606774 335.884573,94.6188022 L335.884573,265.381198 C335.884573,268.239323 334.359781,270.880339 331.884573,272.309401 L184,357.690599 C181.524791,359.119661 178.475209,359.119661 176,357.690599 L28.1154273,272.309401 C25.6402187,270.880339 24.1154273,268.239323 24.1154273,265.381198 L24.1154273,94.6188022 C24.1154273,91.7606774 25.6402187,89.1196613 28.1154273,87.6905989 L176,2.30940108 C178.475209,0.880338717 181.524791,0.880338717 184,2.30940108 Z"/></defs><g id="icon/集群-stop" fill="none" fill-rule="evenodd" stroke="none" stroke-width="1"><g id="Group" transform="translate(0.000000, 400.000000)"><path id="Combined-Shape" fill="#B8B8B8" d="M528.016094,41.2593046 L968.649181,295.999819 L1008.03528,296 L1008.03528,328 C1008.03728,330.722605 1007.34438,333.481833 1005.88391,336.008047 C1004.48136,338.434082 1002.46624,340.449206 1000.0402,341.851757 L528.016094,614.740695 C518.107083,620.469343 505.892917,620.469343 495.983906,614.740695 L23.9597964,341.851757 C18.6564697,338.785772 15.7722581,333.141865 15.9752113,327.419038 L15.9756845,296 L55.3501807,295.999819 L495.983906,41.2593046 C505.892917,35.5306574 518.107083,35.5306574 528.016094,41.2593046 Z"/><path id="Path-2-Copy" fill="#E6E6E6" d="M23.9597964,282.148243 L495.983906,9.25930456 C505.892917,3.53065736 518.107083,3.53065736 528.016094,9.25930456 L1000.0402,282.148243 C1007.69032,286.570965 1010.30664,296.357933 1005.88391,304.008047 C1004.48136,306.434082 1002.46624,308.449206 1000.0402,309.851757 L528.016094,582.740695 C518.107083,588.469343 505.892917,588.469343 495.983906,582.740695 L23.9597964,309.851757 C16.3096821,305.429035 13.693364,295.642067 18.1160863,287.991953 C19.5186376,285.565918 21.5337618,283.550794 23.9597964,282.148243 Z"/></g><g id="Z#/icon/集群-stop" transform="translate(128.000000, 52.000000)"><g id="Group" transform="translate(0.000000, 35.250000)"><path id="Combined-Shape" fill="#404E7A" d="M411,189 L410.999513,389.411 L584.561487,489.617314 L557.561487,536.382686 L383.999513,436.176 L210.438513,536.382686 L183.438513,489.617314 L356.999513,389.411 L357,189 L411,189 Z"/><g id="Group-Copy" transform="translate(408.000000, 337.500000)"><mask id="mask-2" fill="#fff"><use xlink:href="#path-1"/></mask><use id="Polygon" fill="#8B9BCC" xlink:href="#path-1"/><mask id="mask-5" fill="#fff"><use xlink:href="#path-4"/></mask><use id="Polygon-Copy" fill="url(#linearGradient-3)" opacity=".5" xlink:href="#path-4"/><path id="Path-5" fill="#3B55A3" d="M180,0 L257.942286,135 L184,177.690599 C181.524791,179.119661 180,181.760677 180,184.618802 L180,353.071797 C180,355.280936 181.790861,357.071797 184,357.071797 C184.702147,357.071797 185.391923,356.886972 186,356.535898 L335.884573,270 L335.884573,270 L335.884573,90 L180,0 Z" mask="url(#mask-5)"/><path id="Path-5-Copy" fill="url(#linearGradient-6)" d="M180,0 L257.942286,135 L184,177.690599 C181.524791,179.119661 180,181.760677 180,184.618802 L180,353.071797 C180,355.280936 181.790861,357.071797 184,357.071797 C184.702147,357.071797 185.391923,356.886972 186,356.535898 L335.884573,270 L335.884573,270 L335.884573,90 L180,0 Z" mask="url(#mask-5)" opacity=".85"/><path id="Path-2" fill="#CED7F5" d="M30.1154273,86.5358984 L176,2.30940108 C178.475209,0.880338717 181.524791,0.880338717 184,2.30940108 L329.884573,86.5358984 C331.797743,87.6404679 332.453244,90.0868295 331.348674,92 C330.997601,92.6080768 330.49265,93.1130283 329.884573,93.4641016 L184,177.690599 C181.524791,179.119661 178.475209,179.119661 176,177.690599 L30.1154273,93.4641016 C28.2022568,92.3595321 27.5467562,89.9131705 28.6513257,88 C29.002399,87.3919232 29.5073505,86.8869717 30.1154273,86.5358984 Z" mask="url(#mask-5)"/></g><g id="Group-Copy-2" transform="translate(0.000000, 337.500000)"><mask id="mask-8" fill="#fff"><use xlink:href="#path-7"/></mask><use id="Polygon" fill="#8B9BCC" xlink:href="#path-7"/><mask id="mask-10" fill="#fff"><use xlink:href="#path-9"/></mask><use id="Polygon-Copy-2" fill="url(#linearGradient-3)" opacity=".5" xlink:href="#path-9"/><path id="Path-5" fill="#3B55A3" d="M180,0 L257.942286,135 L184,177.690599 C181.524791,179.119661 180,181.760677 180,184.618802 L180,353.071797 C180,355.280936 181.790861,357.071797 184,357.071797 C184.702147,357.071797 185.391923,356.886972 186,356.535898 L335.884573,270 L335.884573,270 L335.884573,90 L180,0 Z" mask="url(#mask-10)"/><path id="Path-5-Copy-2" fill="url(#linearGradient-6)" d="M180,0 L257.942286,135 L184,177.690599 C181.524791,179.119661 180,181.760677 180,184.618802 L180,353.071797 C180,355.280936 181.790861,357.071797 184,357.071797 C184.702147,357.071797 185.391923,356.886972 186,356.535898 L335.884573,270 L335.884573,270 L335.884573,90 L180,0 Z" mask="url(#mask-10)" opacity=".85"/><path id="Path-2" fill="#CED7F5" d="M30.1154273,86.5358984 L176,2.30940108 C178.475209,0.880338717 181.524791,0.880338717 184,2.30940108 L329.884573,86.5358984 C331.797743,87.6404679 332.453244,90.0868295 331.348674,92 C330.997601,92.6080768 330.49265,93.1130283 329.884573,93.4641016 L184,177.690599 C181.524791,179.119661 178.475209,179.119661 176,177.690599 L30.1154273,93.4641016 C28.2022568,92.3595321 27.5467562,89.9131705 28.6513257,88 C29.002399,87.3919232 29.5073505,86.8869717 30.1154273,86.5358984 Z" mask="url(#mask-10)"/></g><g id="Group-Copy-3" transform="translate(204.000000, 0.000000)"><mask id="mask-12" fill="#fff"><use xlink:href="#path-11"/></mask><use id="Polygon" fill="#8B9BCC" xlink:href="#path-11"/><mask id="mask-14" fill="#fff"><use xlink:href="#path-13"/></mask><use id="Polygon-Copy-3" fill="url(#linearGradient-3)" opacity=".3" xlink:href="#path-13"/><path id="Path-5" fill="#3B55A3" d="M180,0 L257.942286,135 L184,177.690599 C181.524791,179.119661 180,181.760677 180,184.618802 L180,353.071797 C180,355.280936 181.790861,357.071797 184,357.071797 C184.702147,357.071797 185.391923,356.886972 186,356.535898 L335.884573,270 L335.884573,270 L335.884573,90 L180,0 Z" mask="url(#mask-14)"/><path id="Path-5-Copy-3" fill="url(#linearGradient-6)" d="M180,0 L257.942286,135 L184,177.690599 C181.524791,179.119661 180,181.760677 180,184.618802 L180,353.071797 C180,355.280936 181.790861,357.071797 184,357.071797 C184.702147,357.071797 185.391923,356.886972 186,356.535898 L335.884573,270 L335.884573,270 L335.884573,90 L180,0 Z" mask="url(#mask-14)" opacity=".3"/><path id="Path-2" fill="#CED7F5" d="M30.1154273,86.5358984 L176,2.30940108 C178.475209,0.880338717 181.524791,0.880338717 184,2.30940108 L329.884573,86.5358984 C331.797743,87.6404679 332.453244,90.0868295 331.348674,92 C330.997601,92.6080768 330.49265,93.1130283 329.884573,93.4641016 L184,177.690599 C181.524791,179.119661 178.475209,179.119661 176,177.690599 L30.1154273,93.4641016 C28.2022568,92.3595321 27.5467562,89.9131705 28.6513257,88 C29.002399,87.3919232 29.5073505,86.8869717 30.1154273,86.5358984 Z" mask="url(#mask-14)"/></g></g></g></g></svg>