<svg xmlns="http://www.w3.org/2000/svg" xmlns:xlink="http://www.w3.org/1999/xlink" width="70" height="63" version="1.1" viewBox="0 0 70 63"><title>icon/集群-basic备份</title><g id="仪表盘" fill="none" fill-rule="evenodd" stroke="none" stroke-width="1"><g id="1.1-仪表盘" transform="translate(-857.000000, -129.000000)"><g id="icon/集群-basic备份" transform="translate(856.000000, 120.000000)"><g id="Group" transform="translate(0.000000, 28.125000)"><path id="Combined-Shape" fill="#259DFF" d="M1.12329032,20.8125 L3.89157017,20.8119482 L34.8738684,2.90104485 C35.5705957,2.49824935 36.4294043,2.49824935 37.1261316,2.90104485 L68.1075702,20.8119482 L70.8774807,20.8125 L70.8774298,23.0571188 C70.8785353,23.2502725 70.8298702,23.4462663 70.7262127,23.6255658 C70.6275958,23.7961464 70.4859074,23.9378348 70.3153268,24.0364517 L37.1261316,43.2239551 C36.4294043,43.6267507 35.5705957,43.6267507 34.8738684,43.2239551 L1.68467318,24.0364517 C1.32607408,23.8291366 1.1247811,23.4541888 1.12257017,23.0678812 L1.12329032,20.8125 Z"/><path id="Path-2-Copy" fill="#DBF3FF" d="M1.68467318,19.8385483 L34.8738684,0.651044852 C35.5705957,0.248249345 36.4294043,0.248249345 37.1261316,0.651044852 L70.3153268,19.8385483 C70.8532255,20.149521 71.0371853,20.8376672 70.7262127,21.3755658 C70.6275958,21.5461464 70.4859074,21.6878348 70.3153268,21.7864517 L37.1261316,40.9739551 C36.4294043,41.3767507 35.5705957,41.3767507 34.8738684,40.9739551 L1.68467318,21.7864517 C1.14677452,21.475479 0.962814653,20.7873328 1.27378732,20.2494342 C1.3724042,20.0788536 1.51409263,19.9371652 1.68467318,19.8385483 Z"/></g><g id="编组" transform="translate(10.687500, 9.000000)"><g id="编组" transform="translate(3.411255, 0.000000)"><polygon id="Fill-1" fill="#096DD9" points="22.742 38.518 22.776 50.625 43.852 38.458 43.852 38.38 43.818 26.351"/><polygon id="Fill-2" fill="#40A9FF" points="0 37.371 10.511 43.456 10.58 19.236 .068 13.151"/><polygon id="Fill-3" fill="#40A9FF" points="33.371 18.248 33.337 30.355 12.261 18.188 12.295 6.081"/><polygon id="Fill-4" fill="#BAE7FF" points=".049 13.151 10.565 19.232 21.011 13.151 10.496 7.07"/><polygon id="Fill-5" fill="#096DD9" points="21.11 13.151 21.076 37.376 10.58 43.456 10.614 19.231"/><polygon id="Fill-6" fill="#BAE7FF" points="12.261 32.432 22.713 38.513 43.753 26.351 33.301 20.27"/><polygon id="Fill-7" fill="#BAE7FF" points="22.762 0 12.31 6.081 33.351 18.243 43.802 12.162 43.802 12.162"/><polygon id="Fill-8" fill="#096DD9" points="33.356 18.246 33.322 30.355 43.818 24.271 43.852 12.24 43.852 12.162"/><polygon id="Fill-9" fill="#40A9FF" points="12.295 44.541 22.791 50.625 22.757 38.516 12.261 32.432"/><polygon id="Fill-10" fill="#40A9FF" points="24.472 25.222 33.336 30.355 33.371 18.243"/></g></g></g></g></g></svg>