<svg xmlns="http://www.w3.org/2000/svg" xmlns:xlink="http://www.w3.org/1999/xlink" width="70" height="63" version="1.1" viewBox="0 0 70 63"><title>icon/租户-basic备份 3</title><defs><linearGradient id="linearGradient-1" x1="10.241%" x2="90.794%" y1="31.775%" y2="60.779%"><stop offset="0%" stop-color="#B18BCC"/><stop offset="100%" stop-color="#783BA3"/></linearGradient><linearGradient id="linearGradient-2" x1="0%" x2="91.573%" y1="44.332%" y2="54.268%"><stop offset="0%" stop-color="#FFF" stop-opacity="0"/><stop offset="18.238%" stop-color="#FFF" stop-opacity=".958"/><stop offset="100%" stop-color="#FFF" stop-opacity="0"/></linearGradient><filter id="filter-3" width="105.6%" height="116.5%" x="-2.8%" y="-8.3%" filterUnits="objectBoundingBox"><feGaussianBlur in="SourceGraphic" stdDeviation=".04"/></filter><linearGradient id="linearGradient-4" x1="-14.414%" x2="94.499%" y1="47.636%" y2="52.098%"><stop offset="0%" stop-color="#B18BCC"/><stop offset="100%" stop-color="#783BA3"/></linearGradient><linearGradient id="linearGradient-5" x1="-9.013%" x2="91.312%" y1="48.966%" y2="55.105%"><stop offset="0%" stop-color="#C090E3"/><stop offset="100%" stop-color="#783BA3"/></linearGradient><linearGradient id="linearGradient-6" x1="0%" x2="100%" y1="44.206%" y2="55.298%"><stop offset="0%" stop-color="#FFF" stop-opacity="0"/><stop offset="40.674%" stop-color="#FFF" stop-opacity=".958"/><stop offset="100%" stop-color="#FFF" stop-opacity="0"/></linearGradient><filter id="filter-7" width="105.6%" height="116.4%" x="-2.8%" y="-8.2%" filterUnits="objectBoundingBox"><feGaussianBlur in="SourceGraphic" stdDeviation=".04"/></filter><linearGradient id="linearGradient-8" x1="0%" x2="91.573%" y1="44.338%" y2="54.264%"><stop offset="0%" stop-color="#FFF" stop-opacity="0"/><stop offset="18.238%" stop-color="#FFF" stop-opacity=".958"/><stop offset="100%" stop-color="#FFF" stop-opacity="0"/></linearGradient><filter id="filter-9" width="105.6%" height="116.6%" x="-2.8%" y="-8.3%" filterUnits="objectBoundingBox"><feGaussianBlur in="SourceGraphic" stdDeviation=".04"/></filter></defs><g id="仪表盘" fill="none" fill-rule="evenodd" stroke="none" stroke-width="1"><g id="1.1-仪表盘" transform="translate(-557.000000, -129.000000)"><g id="icon/租户-basic备份-3" transform="translate(556.000000, 120.000000)"><g id="Group" transform="translate(0.000000, 28.125000)"><path id="Combined-Shape" fill="#B18BCC" d="M1.12329032,20.8125 L3.89157017,20.8119482 L34.8738684,2.90104485 C35.5705957,2.49824935 36.4294043,2.49824935 37.1261316,2.90104485 L68.1075702,20.8119482 L70.8774807,20.8125 L70.8774298,23.0571188 C70.8785353,23.2502725 70.8298702,23.4462663 70.7262127,23.6255658 C70.6275958,23.7961464 70.4859074,23.9378348 70.3153268,24.0364517 L37.1261316,43.2239551 C36.4294043,43.6267507 35.5705957,43.6267507 34.8738684,43.2239551 L1.68467318,24.0364517 C1.32607408,23.8291366 1.1247811,23.4541888 1.12257017,23.0678812 L1.12329032,20.8125 Z"/><path id="Path-2-Copy" fill="#EFE1FA" d="M1.68467318,19.8385483 L34.8738684,0.651044852 C35.5705957,0.248249345 36.4294043,0.248249345 37.1261316,0.651044852 L70.3153268,19.8385483 C70.8532255,20.149521 71.0371853,20.8376672 70.7262127,21.3755658 C70.6275958,21.5461464 70.4859074,21.6878348 70.3153268,21.7864517 L37.1261316,40.9739551 C36.4294043,41.3767507 35.5705957,41.3767507 34.8738684,40.9739551 L1.68467318,21.7864517 C1.14677452,21.475479 0.962814653,20.7873328 1.27378732,20.2494342 C1.3724042,20.0788536 1.51409263,19.9371652 1.68467318,19.8385483 Z"/></g><g id="Z#/icon/集群备份-2" transform="translate(10.687500, 9.000000)"><polygon id="Fill-1" fill="#51276E" points="25.053 23.716 1.977 37.146 25.204 50.576 48.281 37.146"/><polygon id="Fill-2备份" fill="#9E76BA" points="2.045 13.423 1.978 37.171 25.087 23.747 25.154 0"/><polygon id="Fill-3备份" fill="#CDB1E1" points="25.056 23.747 48.312 37.171 48.38 13.423 25.123 0"/><g id="编组-3备份-5" fill-rule="nonzero" transform="translate(16.512451, 7.465210)"><g id="Group-3" transform="translate(0.000000, 8.453979)"><path id="Combined-Shape" fill="url(#linearGradient-1)" d="M0,4.50596401 L17.6495361,4.50596401 L17.6495361,17.8571946 L17.6446252,18.0283639 C17.4878872,20.7559744 13.5990879,22.9394531 8.82476807,22.9394531 C3.95098324,22.9394531 0,20.6640485 0,17.8571946 L0,17.8571946 L0,4.50596401 Z"/><ellipse id="Oval" cx="8.825" cy="4.916" fill="#BD93DE" rx="8.825" ry="4.916"/><path id="Path-13" stroke="url(#linearGradient-2)" stroke-linecap="round" stroke-width=".5" d="M0.00858680798,5.32523019 C0.269684305,6.92842637 1.57403087,8.18249434 3.92162652,9.08743411 C6.26922216,9.99237388 9.39519529,10.0354774 13.2995459,9.21674456" filter="url(#filter-3)" opacity=".75"/></g><g id="Group-3" transform="translate(0.000000, 3.856201)"><path id="Combined-Shape" fill="url(#linearGradient-4)" d="M0,4.91833102 L17.6495361,4.91833102 L17.6495361,7.95729979 L17.6446252,8.11722446 C17.4878872,10.6656495 13.5990879,12.7056885 8.82476807,12.7056885 C3.95098324,12.7056885 0,10.5797624 0,7.95729979 L0,7.95729979 L0,4.91833102 Z"/><ellipse id="Oval" cx="8.825" cy="4.918" fill="#BD93DE" rx="8.825" ry="4.918"/></g><g id="Group-3"><path id="Combined-Shape" fill="url(#linearGradient-5)" d="M0.00867775901,4.09235619 L17.6495361,4.09235619 L17.6495361,7.12668859 L17.6446276,7.28636928 C17.4879666,9.83090635 13.6010794,11.867833 8.82910695,11.867833 C3.95771842,11.867833 0.00867775901,9.74515032 0.00867775901,7.12668859 L0.00867775901,7.12668859 L0.00867775901,4.09235619 Z"/><ellipse id="Oval" cx="8.829" cy="4.297" fill="#BD93DE" rx="8.82" ry="4.297"/><path id="Path-13" stroke="url(#linearGradient-6)" stroke-linecap="round" stroke-width=".5" d="M0.00867775901,4.09235619 C-0.120060337,5.62102706 1.1836132,6.8738782 3.91969837,7.8509096 C6.65578354,8.82794101 9.78021972,8.87100267 13.2930069,7.98009458" filter="url(#filter-7)" opacity=".75"/><path id="Path-13" stroke="url(#linearGradient-8)" stroke-linecap="round" stroke-width=".5" d="M0.0172603451,9.0756314 C0.278229468,10.677272 1.58193473,11.9301231 3.92837613,12.8341848 C6.27481752,13.7382465 9.39925371,13.7813082 13.3016847,12.9633698" filter="url(#filter-9)" opacity=".75"/></g><ellipse id="Oval" cx="8.8" cy="4.4" rx="6.081" ry="3.263"/></g><polygon id="Fill-3" fill="#CDB1E1" points="1.978 37.202 25.234 50.625 25.301 26.877 2.045 13.454"/><polygon id="Fill-2" fill="#783BA3" points="25.271 26.878 25.203 50.625 48.312 37.201 48.38 13.454"/></g></g></g></g></svg>